<svg width="52" height="52" viewBox="0 0 52 52" fill="none" xmlns="http://www.w3.org/2000/svg">
<path d="M38.7854 32.5217H6.28414C5.93149 32.5217 5.64562 32.7913 5.64562 33.1239V35.3534H5.26695C4.56605 35.3534 3.9978 35.8893 3.9978 36.5503V51.9999H9.3177V42.8985H15.1773V51.9999H19.5834V42.8985H25.4429V51.9999H29.8489V42.8985V42.7294H35.7085V42.8985V51.9999H40.1146V42.8985H45.9741V51.9999H51.2942V36.5501C51.2942 35.8891 50.7258 35.3532 50.0249 35.3532H49.6463V33.1236C49.6463 32.7911 49.3605 32.5215 49.0078 32.5215H47.1265V25.6453H38.7849V32.5217H38.7854ZM15.1775 40.2685H9.31796V37.8943H15.1775V40.2685ZM25.4432 40.2685H19.5836V37.8943H25.4432V40.2685V40.2685ZM35.7087 40.1884H29.8492V37.8943H35.7087V40.1884ZM45.9745 40.1884V40.2685H40.115V40.1884V37.8943H45.9745V40.1884Z" fill="#3CAAC9"/>
<path d="M35.7989 15.1245C35.9948 15.6821 36.5475 16.0585 37.1705 16.0585H38.7855V19.6542H47.1271V16.0585H48.8305C49.4533 16.0585 50.0062 15.6821 50.2022 15.1245L51.9673 10.1034C52.1032 9.71683 51.798 9.31835 51.3662 9.31835H48.7536V7.07624C48.7536 6.75843 48.4805 6.50092 48.1434 6.50092H44.2152V1.95189H46.5194C47.3742 1.95189 48.0673 1.29845 48.0673 0.492213V0H37.9342V0.492213C37.9342 1.29833 38.6271 1.95189 39.4821 1.95189H41.7862V6.50079H37.858C37.521 6.50079 37.2479 6.75843 37.2479 7.07612V9.31823H34.6352C34.2035 9.31823 33.8983 9.71671 34.0341 10.1032L35.7989 15.1245ZM48.7543 11.2359C49.0469 11.2359 49.2537 11.5063 49.1616 11.7682L48.4252 13.8634C48.3669 14.029 48.2027 14.1408 48.0178 14.1408H44.5165C44.2795 14.1408 44.0874 13.9595 44.0874 13.7359V11.6408C44.0874 11.4172 44.2795 11.2359 44.5165 11.2359H48.7543V11.2359ZM37.2466 11.2359H41.4842C41.7213 11.2359 41.9135 11.4172 41.9135 11.6408V13.7359C41.9135 13.9595 41.7213 14.1408 41.4842 14.1408H37.9831C37.798 14.1408 37.6338 14.029 37.5757 13.8634L36.8392 11.7682C36.7471 11.5063 36.954 11.2359 37.2466 11.2359Z" fill="#3CAAC9"/>
<path d="M47.1271 23.5984V21.3628H38.7854V23.5984V23.937H47.1271V23.5984Z" fill="#3CAAC9"/>
<path d="M0.292577 5.62221C0.413966 5.80833 0.577543 5.96882 0.765321 6.09672L8.19517 11.1591L10.3237 23.0731C10.4085 23.5476 10.6654 23.9798 11.0503 24.2958L12.3729 25.3814C12.7294 25.6742 13.286 25.4378 13.2898 24.9919L13.3778 14.6905L20.785 19.7376C22.4755 20.8895 24.7438 20.9401 26.4902 19.8649L29.3437 18.1083C29.6678 17.9087 29.7278 17.484 29.4704 17.2115L29.1562 16.8787C28.5795 16.2681 27.705 15.988 26.8534 16.1413L23.5913 16.7283L8.47379 4.61765C7.00082 3.43758 5.13417 2.74582 3.20178 2.7717C2.58706 2.78 1.94324 2.85664 1.30407 3.04044C0.153328 3.37131 -0.351252 4.60434 0.264882 5.57888C0.273941 5.59316 0.283259 5.60769 0.292577 5.62221Z" fill="#3CAAC9"/>
<path d="M17.1843 9.80604C17.6389 10.1879 18.2341 10.3867 18.8423 10.3598L26.7698 10.0084C27.1545 9.92699 27.2606 9.4576 26.945 9.23511L25.7737 8.40995C25.4328 8.16977 25.0143 8.04857 24.5893 8.067L15.0311 7.07843C14.6431 7.03827 14.4295 7.49168 14.7209 7.7365L17.1843 9.80604Z" fill="#3CAAC9"/>
</svg>
