<svg width="36" height="43" viewBox="0 0 36 43" fill="none" xmlns="http://www.w3.org/2000/svg">
<path d="M29.244 22.8499C29.1899 17.4048 33.686 14.7898 33.8886 14.6623C31.3609 10.9651 27.4266 10.4588 26.0255 10.4019C22.6752 10.0607 19.49 12.3719 17.7906 12.3719C16.0953 12.3719 13.4748 10.4478 10.6947 10.499C7.04483 10.5559 3.67934 12.6202 1.80097 15.8913C-1.9919 22.4725 0.82857 32.2208 4.52555 37.5592C6.33321 40.1715 8.48623 43.1027 11.3122 42.9972C14.0381 42.8904 15.0675 41.2355 18.3596 41.2355C21.6489 41.2355 22.5755 42.9959 25.4554 42.9418C28.3839 42.889 30.243 40.2781 32.0366 37.6577C34.1091 34.6293 34.9624 31.6952 35.0151 31.5481C34.9499 31.5147 29.3036 29.3547 29.244 22.8499Z" fill="white"/>
<path d="M23.8292 6.86282C25.3275 5.04558 26.343 2.51928 26.0668 0C23.9054 0.0873263 21.2849 1.43575 19.7353 3.25453C18.3426 4.86373 17.1258 7.43849 17.4505 9.9052C19.8658 10.0924 22.3255 8.67886 23.8292 6.86282Z" fill="white"/>
</svg>
