<svg width="44" height="39" viewBox="0 0 44 39" fill="none" xmlns="http://www.w3.org/2000/svg">
<path opacity="0.2" d="M10 36.53C10 37.635 9.105 38.53 8 38.53H6C4.895 38.53 4 37.635 4 36.53V25.53C4 24.425 4.895 23.53 6 23.53H8C9.105 23.53 10 24.425 10 25.53V36.53Z" fill="#231F20"/>
<path opacity="0.2" d="M40 36.53C40 37.635 39.105 38.53 38 38.53H36C34.895 38.53 34 37.635 34 36.53V25.53C34 24.425 34.895 23.53 36 23.53H38C39.105 23.53 40 24.425 40 25.53V36.53Z" fill="#231F20"/>
<path d="M10 34.53C10 35.635 9.105 36.53 8 36.53H6C4.895 36.53 4 35.635 4 34.53V23.53C4 22.425 4.895 21.53 6 21.53H8C9.105 21.53 10 22.425 10 23.53V34.53Z" fill="#DDD3EA"/>
<path d="M40 34.53C40 35.635 39.105 36.53 38 36.53H36C34.895 36.53 34 35.635 34 34.53V23.53C34 22.425 34.895 21.53 36 21.53H38C39.105 21.53 40 22.425 40 23.53V34.53Z" fill="#DDD3EA"/>
<g opacity="0.2">
<path opacity="0.2" d="M34 24.53H10C6.691 24.53 4 21.839 4 18.53L4.039 18.138L6.069 11.009C6.995 7.57803 9.212 5.53003 12 5.53003H32C34.788 5.53003 37.005 7.57803 37.931 11.009L37.961 11.138L40 18.53C40 21.839 37.309 24.53 34 24.53ZM8.007 18.695C8.091 19.72 8.953 20.53 10 20.53H34C35.047 20.53 35.909 19.72 35.993 18.695L34.053 11.991C33.833 11.204 33.222 9.53003 32 9.53003H12C10.778 9.53003 10.167 11.204 9.947 11.991L8.007 18.695Z" fill="#231F20"/>
</g>
<path d="M38.375 18.53C38.375 20.739 36.209 20.53 34 20.53H9.99999C7.79099 20.53 5.43799 20.739 5.43799 18.53L7.99999 9.53003C8.53999 7.53003 9.79099 5.53003 12 5.53003H32C34.209 5.53003 35.46 7.53003 36 9.53003L38.375 18.53Z" stroke="#F9B233" stroke-width="4" stroke-miterlimit="10"/>
<g opacity="0.2">
<path opacity="0.2" d="M42 28.53C42 30.739 40.209 32.53 38 32.53H6C3.791 32.53 2 30.739 2 28.53V24.53C2 22.321 3.791 20.53 6 20.53H38C40.209 20.53 42 22.321 42 24.53V28.53Z" fill="#231F20"/>
<path opacity="0.2" d="M38 34.53H6C2.691 34.53 0 31.839 0 28.53V24.53C0 21.221 2.691 18.53 6 18.53H38C41.309 18.53 44 21.221 44 24.53V28.53C44 31.839 41.309 34.53 38 34.53ZM6 22.53C4.897 22.53 4 23.427 4 24.53V28.53C4 29.633 4.897 30.53 6 30.53H38C39.103 30.53 40 29.633 40 28.53V24.53C40 23.427 39.103 22.53 38 22.53H6Z" fill="#231F20"/>
</g>
<path d="M42 26.53C42 28.739 40.209 30.53 38 30.53H6C3.791 30.53 2 28.739 2 26.53V22.53C2 20.321 3.791 18.53 6 18.53H38C40.209 18.53 42 20.321 42 22.53V26.53Z" fill="#745721" stroke="#F9B233" stroke-width="4" stroke-miterlimit="10"/>
<path d="M11 25.53C11 27.739 9.209 29.53 7 29.53C4.791 29.53 3 27.739 3 25.53C3 23.321 4.791 21.53 7 21.53C9.209 21.53 11 23.321 11 25.53Z" fill="#DDD3EA" stroke="#F9B233" stroke-width="2" stroke-miterlimit="10"/>
<path d="M41 25.53C41 27.739 39.209 29.53 37 29.53C34.791 29.53 33 27.739 33 25.53C33 23.321 34.791 21.53 37 21.53C39.209 21.53 41 23.321 41 25.53Z" fill="#DDD3EA" stroke="#F9B233" stroke-width="2" stroke-miterlimit="10"/>
<path d="M27.562 4.255C27.562 5.148 27.687 5.063 26.794 5.063H17.094C16.201 5.063 16.25 5.148 16.25 4.255L16.286 3.617C16.504 2.809 17.01 2 17.903 2H25.986C26.879 2 27.385 2.808 27.603 3.617L27.562 4.255Z" fill="#717E93" stroke="#F9B233" stroke-width="4" stroke-miterlimit="10"/>
</svg>
