<svg width="56" height="51" viewBox="0 0 56 51" fill="none" xmlns="http://www.w3.org/2000/svg">
<path d="M55.5443 4.28551C54.8959 2.46948 53.2528 0.270045 49.1359 0.0117617C49.1314 0.010868 49.1269 0.0117616 49.1224 0.0108679C49.0765 0.00818674 49.0351 0.00193087 48.9902 0.000143442C48.9668 -0.000750273 48.9434 0.00282439 48.92 0.00282439C48.8975 0.00282439 48.876 -0.000750273 48.8535 0.000143442C48.8112 0.00193087 48.7734 0.00729309 48.7321 0.00997424C48.724 0.010868 48.7159 0.010868 48.7087 0.0117617C44.5899 0.269152 42.9469 2.47037 42.2985 4.2864C40.6465 8.9087 43.776 16.2631 47.036 19.964C44.3894 21.7353 36.2759 23.1045 30.1589 24.1349C18.9078 26.0296 13.0371 27.1718 13.0371 30.4723C13.0371 33.7727 18.4059 34.8452 27.8953 36.4539C32.3505 37.21 39.7742 38.4692 40.4855 39.7508C39.4288 41.2853 29.8261 42.8457 24.0553 43.7824C18.7063 44.6519 14.4445 45.3758 11.3536 46.2124C13.5075 42.3721 14.932 37.4084 13.7026 33.9649C13.0461 32.1265 11.3761 29.8913 7.14763 29.6777C7.12425 29.6768 7.10177 29.6813 7.07838 29.6813C7.0559 29.6813 7.03342 29.6768 7.01094 29.6777C2.78154 29.8913 1.11154 32.1274 0.455055 33.9658C-1.36153 39.0537 2.61157 47.4662 6.17729 50.6559C6.18628 50.664 6.19797 50.6666 6.20786 50.6747C6.23035 50.6935 6.24923 50.7167 6.27441 50.7346C6.27621 50.7364 6.27981 50.7364 6.28161 50.7381C6.37603 50.8079 6.47855 50.8615 6.58557 50.9035C6.60176 50.9097 6.61705 50.9142 6.63323 50.9205C6.65841 50.9294 6.68359 50.9357 6.70877 50.9419C6.82928 50.9759 6.95158 50.9991 7.07659 51C7.07659 51 7.07749 51 7.07838 51H7.07928C7.17641 51 7.27263 50.9875 7.36796 50.9669C7.39853 50.9598 7.42731 50.9482 7.45789 50.9383C7.47497 50.9339 7.49206 50.9285 7.50915 50.9222C7.53073 50.9151 7.55231 50.9097 7.573 50.9026C7.59728 50.8928 7.62156 50.8838 7.64494 50.8731C7.68181 50.8552 7.71509 50.8329 7.75106 50.8132C7.80142 50.7846 7.84998 50.756 7.89675 50.7203C7.91833 50.7033 7.94081 50.6872 7.9615 50.6675C7.96689 50.6631 7.97409 50.6622 7.97948 50.6568C8.15215 50.5022 8.32571 50.3261 8.49928 50.1483C10.5029 48.7032 18.522 47.3992 24.4879 46.4304C36.4396 44.4893 43.2014 43.2238 43.2014 39.7928C43.2014 36.4932 37.8335 35.4217 28.3468 33.813C23.8908 33.0569 16.4653 31.7976 15.753 30.5143C16.7377 29.1156 25.0661 27.7125 30.6076 26.7794C41.2481 24.9884 47.9191 23.6773 49.9173 20.8872C53.4588 17.6331 57.3464 9.32785 55.5443 4.28551ZM7.07928 40.8474C5.05496 40.8474 3.40835 39.211 3.40835 37.1992C3.40835 35.1884 5.05496 33.5529 7.07928 33.5529C9.1027 33.5529 10.7484 35.1884 10.7484 37.1992C10.7484 39.211 9.1027 40.8474 7.07928 40.8474ZM48.9218 11.168C46.8975 11.168 45.2509 9.53162 45.2509 7.52076C45.2509 5.5099 46.8975 3.87351 48.9218 3.87351C50.9452 3.87351 52.591 5.5099 52.591 7.52076C52.591 9.53162 50.9452 11.168 48.9218 11.168Z" fill="#3caac9"/>
</svg>
