<svg width="53" height="53" viewBox="0 0 53 53" fill="none" xmlns="http://www.w3.org/2000/svg">
<path d="M16.4344 9.39648L1 13.454V52.0001L16.4344 47.9426V9.39648Z" stroke="#3caac9" stroke-width="2" stroke-linecap="round" stroke-linejoin="round"/>
<path d="M25.8701 11.9324L16.4346 9.39648V47.9426L31.869 52.0001V25.0584" stroke="#3caac9" stroke-width="2" stroke-linecap="round" stroke-linejoin="round"/>
<path d="M31.8687 25.0583V52L47.3031 47.9426V25.0583" stroke="#3caac9" stroke-width="2" stroke-linecap="round" stroke-linejoin="round"/>
<path d="M32.8737 6.60716C34.6506 4.85482 37.0609 3.87012 39.5743 3.86969C42.0877 3.86926 44.4983 4.85313 46.2758 6.60485C47.1607 7.47119 47.8634 8.50119 48.3437 9.63579C48.8239 10.7704 49.0723 11.9873 49.0745 13.2167C49.0768 14.4461 48.8329 15.6639 48.3568 16.8002C47.8806 17.9365 47.1817 18.969 46.3 19.8385L39.6001 26.4456L32.8833 19.8264C32.0016 18.9594 31.3019 17.9295 30.8242 16.7957C30.3465 15.662 30.1001 14.4465 30.0992 13.2187C30.0983 11.991 30.3429 10.7752 30.819 9.64073C31.295 8.50627 31.9933 7.47543 32.8737 6.60716V6.60716Z" stroke="#3caac9" stroke-width="2" stroke-linecap="round" stroke-linejoin="round"/>
<path d="M39.5861 17.4709C42.0183 17.4709 43.99 15.5271 43.99 13.1293C43.99 10.7316 42.0183 8.78784 39.5861 8.78784C37.1538 8.78784 35.1821 10.7316 35.1821 13.1293C35.1821 15.5271 37.1538 17.4709 39.5861 17.4709Z" stroke="#3caac9" stroke-width="2" stroke-linecap="round" stroke-linejoin="round"/>
</svg>
