<svg width="463" height="436" viewBox="0 0 463 436" fill="none" xmlns="http://www.w3.org/2000/svg">
<path d="M43.5001 395.5C32.4001 395.5 23.3 386.5 23.3 375.3V29.3999C23.3 18.2999 32.3001 9.19995 43.5001 9.19995H222.7C233.8 9.19995 242.9 18.1999 242.9 29.3999V375.3C242.9 386.4 233.9 395.5 222.7 395.5H43.5001V395.5Z" fill="#E8E6ED"/>
<path d="M29.4 404.7C13.2 404.7 0 391.5 0 375.3V29.4C0 13.2 13.2 0 29.4 0H208.7C224.9 0 238.1 13.2 238.1 29.4V375.3C238.1 391.5 224.9 404.7 208.7 404.7H29.4V404.7Z" fill="#2A1A0D"/>
<path d="M43.5001 404.7C27.3001 404.7 14.1001 391.5 14.1001 375.3V29.4C14.1001 13.2 27.3001 0 43.5001 0H222.7C238.9 0 252.1 13.2 252.1 29.4V375.3C252.1 391.5 238.9 404.7 222.7 404.7H43.5001V404.7Z" fill="#5E4335"/>
<path d="M144.5 187.9C186.8 187.9 224.9 169.9 252.1 141.1V29.4C252.1 13.2 238.9 0 222.7 0H43.5001C27.3001 0 14.1001 13.2 14.1001 29.4V109.5C39.5001 156.2 88.3001 187.9 144.5 187.9Z" fill="#6E4E3E"/>
<path d="M222.7 9.30005H182.6L175.3 18.2001C172.9 21.2001 169.2 22.9 165.4 22.9H100.8C97.0001 22.9 93.3 21.2001 90.9 18.2001L83.6 9.30005H43.5001C32.4001 9.30005 23.3 18.3001 23.3 29.5001V375.4C23.3 386.5 32.3001 395.6 43.5001 395.6H222.7C233.8 395.6 242.9 386.6 242.9 375.4V29.4C242.8 18.3 233.8 9.30005 222.7 9.30005Z" fill="#3CAAC9"/>
<path d="M100.7 116.8C73.2001 116.8 47.1 121.4 23.3 129.8V375.4C23.3 386.5 32.3001 395.6 43.5001 395.6H222.7C233.8 395.6 242.9 386.6 242.9 375.4V166.8C207 136 156.6 116.8 100.7 116.8Z" fill="white"/>
<path d="M206.3 32.4002C205.9 32.4002 205.4 32.2002 205.1 31.9002C203.5 30.3002 201.4 29.4002 199.2 29.4002C197 29.4002 194.8 30.3002 193.3 31.9002C192.6 32.6002 191.6 32.6002 190.9 31.9002C190.2 31.2002 190.2 30.2002 190.9 29.5002C193.1 27.3002 196.1 26.0002 199.2 26.0002C202.4 26.0002 205.3 27.2002 207.5 29.5002C208.2 30.2002 208.2 31.2002 207.5 31.9002C207.2 32.2002 206.8 32.4002 206.3 32.4002Z" fill="#0F6881"/>
<path d="M209.6 29.6002C209.2 29.6002 208.7 29.4002 208.4 29.1002C205.9 26.6002 202.6 25.3001 199.2 25.3001C195.7 25.3001 192.4 26.7002 190 29.1002C189.3 29.8002 188.3 29.8002 187.6 29.1002C186.9 28.4002 186.9 27.4001 187.6 26.7001C190.7 23.6001 194.8 21.9001 199.2 21.9001C203.6 21.9001 207.7 23.6001 210.8 26.7001C211.5 27.4001 211.5 28.4002 210.8 29.1002C210.5 29.5002 210.1 29.6002 209.6 29.6002Z" fill="#0F6881"/>
<path d="M194.6 35.5002C194.2 35.5002 193.7 35.3002 193.4 35.0002C192.7 34.3002 192.7 33.3002 193.4 32.6002C194.9 31.1002 197 30.2002 199.2 30.2002C201.4 30.2002 203.4 31.0002 205 32.6002C205.7 33.3002 205.7 34.3002 205 35.0002C204.3 35.7002 203.3 35.7002 202.6 35.0002C201.7 34.1002 200.5 33.6002 199.2 33.6002C197.9 33.6002 196.7 34.1002 195.8 35.0002C195.5 35.3002 195.1 35.5002 194.6 35.5002Z" fill="#0F6881"/>
<path d="M202.1 37.6001C202.1 38.4001 201.8 39.1001 201.3 39.6001C200.8 40.1001 200.1 40.4 199.3 40.4C198.5 40.4 197.8 40.1001 197.3 39.6001C196.8 39.1001 196.5 38.4001 196.5 37.6001C196.5 36.8001 196.8 36.1001 197.3 35.6001C197.8 35.1001 198.5 34.8 199.3 34.8C200.1 34.8 200.8 35.1001 201.3 35.6001C201.8 36.1001 202.1 36.8001 202.1 37.6001Z" fill="#0F6881"/>
<path d="M230.5 19.9001H228.5C228.4 18.6001 227.4 17.6001 226 17.6001H224.7C223.4 17.6001 222.3 18.6001 222.2 19.9001H220.2C218.8 19.9001 217.7 21.0001 217.7 22.4001V39.5001C217.7 40.9001 218.8 42.0001 220.2 42.0001H230.4C231.8 42.0001 232.9 40.9001 232.9 39.5001V22.4001C232.9 21.0001 231.8 19.9001 230.5 19.9001ZM231.2 39.5001C231.2 39.9001 230.9 40.3001 230.4 40.3001H220.2C219.8 40.3001 219.4 40.0001 219.4 39.5001V22.4001C219.4 22.0001 219.7 21.6001 220.2 21.6001H223.9V20.0001C223.9 19.6001 224.2 19.2001 224.7 19.2001H226C226.4 19.2001 226.8 19.5001 226.8 20.0001V21.6001H230.5C230.9 21.6001 231.3 21.9001 231.3 22.4001V39.5001H231.2Z" fill="#0F6881"/>
<path d="M228.9 25.9001H221.9C221.1 25.9001 220.4 26.6001 220.4 27.4001V37.8001C220.4 38.6001 221.1 39.3001 221.9 39.3001H228.9C229.7 39.3001 230.4 38.6001 230.4 37.8001V27.4001C230.4 26.6001 229.7 25.9001 228.9 25.9001Z" fill="#0F6881"/>
<path d="M339.9 263.29C339.9 260.19 338 252.09 341.4 251.09C344.8 250.09 364.4 247.29 366.1 258.49C367.8 269.69 371 271.99 354.6 271.99C345.4 271.99 339.9 267.59 339.9 263.29Z" fill="#3CAAC9"/>
<path d="M121.3 400.59L229.9 402.79L178.5 297.09L137.8 296.79L126.9 313.19L121.3 400.59Z" fill="#2C1A25"/>
<path d="M198.2 322.49H153.6V435.49H198.2C212.7 435.49 224.5 410.19 224.5 378.99C224.5 347.79 212.7 322.49 198.2 322.49Z" fill="#2C1A25"/>
<path d="M153.7 435.49C168.225 435.49 180 410.194 180 378.99C180 347.786 168.225 322.49 153.7 322.49C139.175 322.49 127.4 347.786 127.4 378.99C127.4 410.194 139.175 435.49 153.7 435.49Z" fill="#3B1E29"/>
<path d="M177.4 354.59C173.2 335.59 164.1 322.49 153.7 322.49C139.2 322.49 127.4 347.79 127.4 378.99C127.4 387.79 128.3 396.19 130 403.59C131.1 403.69 132.2 403.79 133.3 403.79C155.5 403.79 173.9 382.49 177.4 354.59Z" fill="#542B37"/>
<path d="M153.7 419.59C162.039 419.59 168.8 401.413 168.8 378.99C168.8 356.567 162.039 338.39 153.7 338.39C145.36 338.39 138.6 356.567 138.6 378.99C138.6 401.413 145.36 419.59 153.7 419.59Z" fill="#B8B3B1"/>
<path d="M420.1 321.29H378.9C365.5 321.29 354.6 344.69 354.6 373.49C354.6 402.29 365.5 425.69 378.9 425.69H420.1C433.5 425.69 444.4 402.29 444.4 373.49C444.4 344.69 433.5 321.29 420.1 321.29Z" fill="#2C1A25"/>
<path d="M462.8 357.69L460.6 362.29C460.6 362.29 460.7 366.09 460.6 371.09C460.6 371.39 460.6 371.69 460.6 371.99V372.29C460.6 372.59 460.6 372.79 460.6 373.09C460.6 373.49 460.6 373.89 460.6 374.29C460.3 381.99 459.5 390.99 457.3 392.59C457.3 392.59 451.9 392.89 442.7 393.49C425 394.59 393.2 396.49 357.7 398.29C314.3 400.49 265.4 402.59 230 402.89C229.6 402.89 229.2 402.89 228.8 402.89C226.5 402.89 224.3 402.89 222.1 402.89C214.7 402.89 208 402.79 202.3 402.59C201.6 402.59 201 402.49 200.4 402.29C198.5 401.79 196.8 400.59 195.4 398.79C191.5 393.79 189.8 384.29 189.3 373.19C189.3 372.89 189.3 372.59 189.2 372.19C189.2 371.99 189.2 371.79 189.2 371.69C189 369.89 188.7 367.79 188.3 365.49C188.2 364.79 188 364.09 187.9 363.49C187.6 362.09 187.2 360.59 186.8 358.99C186.7 358.59 186.6 358.29 186.5 357.89C186.3 357.09 186.1 356.39 185.8 355.59C184.1 350.09 181.8 344.09 179 338.49C176.1 332.59 172.5 326.99 168.4 322.49C161.7 315.29 153.5 310.89 143.9 312.99C114 319.29 129.4 386.59 123.8 398.79C123.2 399.99 122.5 400.69 121.4 400.69C120.5 400.69 119.4 400.69 118.1 400.59C117.9 400.59 117.7 400.59 117.5 400.59C117.3 400.59 117.1 400.59 116.9 400.59H116.8C116.5 400.59 116.1 400.59 115.8 400.49C114.2 400.39 112.4 400.29 110.4 400.09C109.9 400.09 109.3 399.99 108.8 399.99C105.8 399.69 102.4 399.39 98.7001 398.99C98.6001 398.99 98.4001 398.99 98.2001 398.99C98.0001 398.99 97.8001 398.89 97.6001 398.89C96.8001 398.79 96.1001 398.69 95.2001 398.59C94.5001 398.49 93.8001 398.39 93.1001 398.29C90.6001 397.99 87.9001 397.69 85.2001 397.39C84.6001 397.29 83.9001 397.19 83.3001 397.19C79.1001 396.69 74.8001 396.09 70.4001 395.49C69.8001 395.39 69.1001 395.29 68.4001 395.19C68.2001 395.19 67.9001 395.09 67.7001 395.09C67.1001 394.99 66.5001 394.89 65.9001 394.79C61.0001 394.09 56.0001 393.39 51.0001 392.69C46.4001 391.99 41.7001 391.29 37.3001 390.69C34.4001 390.19 31.5001 389.79 28.7001 389.39C27.8001 389.19 26.9001 389.09 25.9001 388.99C24.1001 385.99 23.1001 382.49 23.1001 378.79V214.29C31.9001 210.59 42.6001 207.59 56.2001 205.99C73.0001 204.09 99.3001 202.19 128.4 201.39C131.6 201.29 134.8 201.19 138.1 201.19C159.6 200.79 182.1 200.99 203.3 202.09C217.3 202.89 230.7 203.99 242.7 205.69C254.8 207.39 265.6 209.59 274.2 212.49C283.2 215.49 293.6 223.29 304.3 232.29C306.2 233.89 308.2 235.59 310.2 237.29C310.3 237.39 310.4 237.49 310.5 237.49C312.5 239.29 314.6 240.99 316.6 242.79C317 243.19 317.4 243.49 317.9 243.89C320.4 246.09 323 248.29 325.5 250.39C325.6 250.49 325.7 250.59 325.9 250.69C326.6 251.29 327.2 251.79 327.9 252.39C328.9 253.19 329.9 253.99 330.9 254.89C331.6 255.39 332.2 255.99 332.9 256.49C334.2 257.49 335.5 258.59 336.8 259.49C337.4 259.99 338.1 260.49 338.7 260.89C339.2 261.19 339.7 261.59 340.1 261.89C341.3 262.79 342.5 263.59 343.7 264.39C344 264.59 344.4 264.79 344.7 264.99C345.8 265.69 347 266.39 348.1 266.99C348.8 267.39 349.4 267.69 350.1 268.09C350.5 268.29 350.9 268.49 351.3 268.69C353.4 269.69 355.8 270.69 358.6 271.69C383.6 280.89 432.8 291.69 446.8 302.99C447.1 303.29 447.4 303.49 447.7 303.79C447.8 303.89 448 304.09 448.1 304.19C448.4 304.49 448.6 304.69 448.8 304.99C448.9 305.09 449 305.29 449.1 305.39C449.2 305.49 449.3 305.69 449.4 305.79C449.5 305.89 449.6 306.09 449.7 306.19C450 306.59 450.2 307.09 450.5 307.59C450.8 307.99 451 308.49 451.3 308.99C451.6 309.59 452 310.09 452.3 310.69C452.7 311.49 453.1 312.19 453.5 312.99C454 313.99 454.5 314.99 454.9 315.99C455.3 316.89 455.7 317.69 456 318.59C456.1 318.79 456.1 318.89 456.2 319.09C456.6 319.99 456.9 320.89 457.3 321.79C457.4 321.99 457.4 322.09 457.5 322.29C457.8 323.19 458.2 324.09 458.5 325.09C458.5 325.19 458.6 325.29 458.6 325.39C459.7 328.89 460.7 332.59 461.4 336.39C461.4 336.59 461.5 336.79 461.5 336.99C461.6 337.69 461.8 338.49 461.9 339.19C462.1 340.29 462.2 341.49 462.4 342.59C462.6 343.99 462.7 345.49 462.8 346.99C462.8 347.59 462.9 348.09 462.9 348.69C462.9 348.99 462.9 349.39 462.9 349.69C462.9 350.29 463 350.79 463 351.39C462.9 353.49 462.9 355.59 462.8 357.69Z" fill="#3CAAC9"/>
<path d="M138.5 278.29C138.5 278.29 182 283.79 208.4 305.29L377.2 326.79L451.1 309.09C450.6 308.19 450 307.29 449.5 306.39C440.9 292.69 373.9 279.69 351 268.99C332.9 260.49 308.7 234.09 288.2 220.19L272.2 214.49C272.2 214.49 145.2 201.19 113.3 212.69C113.4 212.59 136.9 245.69 138.5 278.29Z" fill="#3CAAC9"/>
<path d="M126.2 274.29C115.7 295.19 118.3 319.09 118.3 319.09L39.8001 317.89C29.5001 328.89 39.8001 379.09 39.8001 379.09C29.0001 357.29 27.8001 316.89 27.8001 316.89C27.8001 316.89 26.0001 316.59 23.1001 316.19V228.89L25.6001 228.39L59.4001 221.29L93.6001 214.09L96.3001 218.79L104.3 232.49L120.6 260.39L121.6 262.09L122.1 262.99L122.6 263.79L123.2 264.79L126.3 270.09L127.4 272.09C127 272.79 126.6 273.49 126.2 274.29Z" fill="#3CAAC9"/>
<path d="M80.8 280.39L54.8 277.99C54.8 277.99 52.2 285.19 64.6 285.89C77 286.59 80.8 284.79 80.8 280.39Z" fill="#3B1E29"/>
<path d="M461.3 336.39C427.7 341.19 319 353.49 178.9 338.49C185.4 351.39 188.9 365.79 189.2 373.19C189.9 389.29 193.3 402.19 202.2 402.59C267 404.99 457.1 392.59 457.1 392.59C461 389.69 460.5 362.49 460.5 362.49L462.7 357.89C463.1 350.09 462.5 342.99 461.3 336.39Z" fill="#1A7F9B"/>
<path d="M460.6 362.39L462.8 357.79C462.8 357.79 459.9 361.69 453.6 362.39C447.4 363.09 306.4 368.69 265 366.39C223.6 364.09 224.7 367.49 224.5 376.99C224.3 386.59 233.8 387.99 262.4 388.69C291 389.39 441.1 393.29 460.3 377.29C460.7 369.89 460.6 362.39 460.6 362.39Z" fill="#0F6881"/>
<path d="M421.9 342.29L353.4 344.49V361.89L421.9 360.29V342.29Z" fill="#0F6881"/>
<path d="M42.8001 358.49C42.3001 368.39 47.6001 384.09 51.0001 392.59C77.3001 396.39 105.5 399.89 118 400.49C114.3 384.89 116.3 356.19 116.3 356.19L42.8001 358.49Z" fill="#1A7F9B"/>
<path d="M37.3 390.59C34.4 390.09 31.5 389.69 28.7 389.29C27.8 389.09 26.9 388.99 25.9 388.89C25.9 388.89 25.9 388.89 25.8 388.89C24 385.89 23 382.39 23 378.69V355.79L28.2 356.19C28.3 356.09 33 377.99 37.3 390.59Z" fill="#1A7F9B"/>
<path d="M449.6 306.39C448.9 305.39 447.9 304.29 446.7 303.29C446.7 303.29 443.2 303.79 437.3 304.49C427.9 305.59 423.5 316.59 429.5 323.89C430.4 324.99 431.3 326.09 432.1 327.19C434.7 330.49 439 332.09 443.2 331.19C451.4 329.49 456.9 327.49 458.5 325.39C456.2 318.49 453.2 312.09 449.6 306.39Z" fill="#EDEDED"/>
<path d="M276.8 307.29C252 306.49 229.1 305.09 214.7 302.89C211 302.29 207.5 304.99 207 308.69C206.2 314.79 208.3 323.39 224.5 327.19C236.8 330.09 266.1 332.69 297.5 334.49C302 334.79 304.6 329.59 301.8 326.09C296.3 318.99 290.3 313.79 285.2 310.09C282.8 308.29 279.8 307.39 276.8 307.29Z" fill="#EDEDED"/>
<path d="M113.4 212.59C113.4 212.59 142 251.89 145 269.49C145 269.49 297.7 262.19 339.5 269.49C339.5 269.49 299.9 228.39 272.3 214.39C272.3 214.49 154.5 207.49 113.4 212.59Z" fill="#382627"/>
<path d="M247.4 224.09L267 257.79C267.4 258.49 268.1 258.99 268.8 259.29L288.9 266.39C310.2 266.69 328.6 267.59 339.5 269.49C339.5 269.49 277.7 215.19 249.9 218.89C247.5 219.29 246.1 221.99 247.4 224.09Z" fill="#4F3536"/>
<path d="M215.8 217.09V226.69C215.8 227.09 215.5 227.39 215.1 227.39H192.5C192.1 227.39 191.8 227.09 191.8 226.69V218.79L116.5 217.09C124 227.79 142.6 255.59 144.9 269.59C144.9 269.59 192.9 267.29 242.5 266.59C242.6 266.49 244.8 227.29 215.8 217.09Z" fill="#4F3536"/>
<path d="M194.2 267.59C205.2 267.29 217.4 266.89 229.9 266.69V246.19C229.9 244.99 229 244.09 227.8 244.09H196.3C195.1 244.09 194.2 244.99 194.2 246.19V267.59Z" fill="#382627"/>
<path d="M126.9 232.59C134.8 244.99 143.4 260.29 145 269.49C145 269.49 158.3 268.89 178 268.19L175.6 217.09L127.9 214.19L126.9 232.59Z" fill="#382627"/>
<path d="M126.6 271.99C126.5 273.09 125.7 274.09 124.5 274.39C124.2 274.49 124 274.49 123.7 274.49L122.9 274.39L89.4001 272.09L71.2001 270.79L65.8001 270.39L41.0001 268.69L23.1001 267.49V219.89C25.8001 218.89 28.6001 217.89 31.5001 217.09C32.3001 216.89 33.2001 216.59 34.0001 216.39C34.4001 216.29 34.9001 216.19 35.3001 216.09C37.0001 215.69 38.7001 215.29 40.5001 214.89H40.6001C41.4001 214.69 42.3001 214.59 43.1001 214.39C43.5001 214.29 44.0001 214.19 44.4001 214.09C45.3001 213.89 46.2001 213.79 47.0001 213.59C48.6001 213.29 50.2001 213.09 51.9001 212.79C53.3001 212.59 54.8001 212.39 56.2001 212.19C56.6001 212.09 57.1001 212.09 57.5001 212.09C58.0001 211.99 58.5001 211.99 58.9001 211.89C59.3001 211.89 59.7001 211.79 60.1001 211.79C60.8001 211.69 61.6001 211.69 62.3001 211.59H62.7001C63.4001 211.49 64.1001 211.49 64.8001 211.39C65.5001 211.29 66.2001 211.29 66.9001 211.19C67.6001 211.19 68.3001 211.09 69.0001 211.09C69.4001 211.09 69.8001 211.09 70.2001 210.99C70.3001 210.99 70.5001 210.99 70.6001 210.99C71.0001 210.99 71.4001 210.99 71.8001 210.89C72.6001 210.89 73.3001 210.79 74.1001 210.79C74.7001 210.79 75.3001 210.79 75.9001 210.79C81.8001 210.69 87.0001 210.89 91.2001 211.39C91.5001 211.39 91.8001 211.49 92.0001 211.49C92.2001 211.49 92.4001 211.59 92.5001 211.59C93.2001 211.69 93.8001 211.89 94.5001 212.19C94.7001 212.29 95.0001 212.39 95.2001 212.49C95.4001 212.59 95.6001 212.69 95.8001 212.79C95.9001 212.79 96.1001 212.89 96.2001 212.99C96.4001 213.09 96.6001 213.19 96.8001 213.29C97.1001 213.39 97.3001 213.59 97.6001 213.69C97.9001 213.89 98.1001 213.99 98.4001 214.19C105.1 218.69 110.8 227.89 115.4 237.79C115.8 238.79 116.3 239.69 116.7 240.69C116.8 240.89 116.9 241.09 116.9 241.19C117.2 241.79 117.4 242.29 117.6 242.89C119.7 248.09 121.6 253.29 123 257.89C123.4 259.29 123.9 260.69 124.3 261.99C124.5 262.49 124.6 262.99 124.7 263.49C124.7 263.49 124.7 263.49 124.7 263.59C124.8 263.99 124.9 264.29 125 264.69C125.1 265.09 125.2 265.39 125.3 265.79C125.4 266.09 125.5 266.39 125.6 266.69C125.8 267.49 126 268.19 126.2 268.89C126.3 269.19 126.4 269.49 126.5 269.79C126.6 270.19 126.7 270.49 126.8 270.79C126.6 271.39 126.6 271.69 126.6 271.99Z" fill="#4F3536"/>
<path d="M103.2 218.79H79.9002L71.6002 249.39L67.8002 263.39L65.9002 270.49L41.1002 268.79C46.8002 255.19 57.3002 229.89 59.2002 223.69C59.5002 222.79 59.6002 221.99 59.5002 221.29C59.0002 215.49 47.9002 217.09 47.9002 217.09C39.9002 216.79 32.4002 221.49 25.7002 228.39C24.9002 229.29 24.0002 230.19 23.2002 231.09V219.99C25.9002 218.99 28.7002 217.99 31.6002 217.19C32.4002 216.99 33.3002 216.69 34.1002 216.49C34.5002 216.39 35.0002 216.29 35.4002 216.19C37.1002 215.79 38.8002 215.39 40.6002 214.99H40.7002C41.5002 214.79 42.4002 214.69 43.2002 214.49C43.6002 214.39 44.1002 214.29 44.5002 214.19C45.4002 213.99 46.3002 213.89 47.1002 213.69C48.7002 213.39 50.3002 213.19 52.0002 212.89C53.4002 212.69 54.9002 212.49 56.3002 212.29C56.7002 212.19 57.2002 212.19 57.6002 212.19C58.1002 212.09 58.6002 212.09 59.0002 211.99C59.4002 211.99 59.8002 211.89 60.2002 211.89C60.9002 211.79 61.7002 211.79 62.4002 211.69H62.8002C63.5002 211.59 64.2002 211.59 64.9002 211.49C65.6002 211.39 66.3002 211.39 67.0002 211.29C67.7002 211.29 68.4002 211.19 69.1002 211.19C69.5002 211.19 69.9002 211.19 70.3002 211.09C70.4002 211.09 70.6002 211.09 70.7002 211.09C71.1002 211.09 71.5002 211.09 71.9002 210.99C72.7002 210.99 73.4002 210.89 74.2002 210.89C74.8002 210.89 75.4002 210.89 76.0002 210.89C81.9002 210.79 87.1002 210.99 91.3002 211.49C91.6002 211.49 91.9002 211.59 92.1002 211.59C92.3002 211.59 92.5002 211.69 92.6002 211.69C93.3002 211.79 93.9002 211.99 94.6002 212.29C94.8002 212.39 95.1002 212.49 95.3002 212.59C95.5002 212.69 95.7002 212.79 95.9002 212.89C96.0002 212.89 96.2002 212.99 96.3002 213.09C96.5002 213.19 96.7002 213.29 96.9002 213.39C97.2002 213.49 97.4002 213.69 97.7002 213.79C98.0002 213.99 98.2002 214.09 98.5002 214.29C99.9002 215.49 101.6 216.99 103.2 218.79Z" fill="#382627"/>
<path d="M126.5 270.99C126 269.09 125.3 266.59 124.5 263.69L119 261.79L122.8 258.09C120.2 249.89 116.5 239.79 111.8 231.19L97.3002 233.49C94.3002 233.99 92.0001 236.49 91.7001 239.59L89.4001 271.99L123.7 274.39C125.6 274.49 127 272.79 126.5 270.99Z" fill="#382627"/>
<path d="M127.4 262.59L116.2 261.59C114.3 261.39 112.6 260.39 111.6 258.89C108.9 254.89 103.5 247.59 100 247.39C95.1001 247.19 69.2001 243.99 68.2001 253.99C67.2001 263.99 66.7001 271.49 77.7001 273.19C88.7001 274.89 127.5 274.29 127.5 274.29V262.59H127.4Z" fill="#3CAAC9"/>
<path d="M70.0001 256.69C71.0001 246.69 96.9001 249.79 101.8 250.09C105.4 250.29 110.8 257.59 113.4 261.59C114.4 263.19 116.1 264.19 118 264.29L127.4 265.09V262.59L116.2 261.59C114.3 261.39 112.6 260.39 111.6 258.89C108.9 254.89 103.5 247.59 100 247.39C95.1001 247.19 69.2001 243.99 68.2001 253.99C67.5001 260.99 67.1001 266.79 70.6001 270.19C69.1001 266.79 69.5001 262.09 70.0001 256.69Z" fill="#3CAAC9"/>
<path d="M127.4 263.89L109.3 263.29C107.1 263.19 105.2 264.99 105.1 267.19C105 269.39 106.8 271.29 109 271.39L127.4 272.09V263.89Z" fill="#2C1A25"/>
</svg>
