<svg width="33" height="36" viewBox="0 0 33 36" fill="none" xmlns="http://www.w3.org/2000/svg">
<path d="M0.613953 0.318115C0.252045 0.590118 0.00036615 1.00897 0 1.49219V34.4997C0 34.9899 0.251862 35.4055 0.616699 35.6794L19.1236 18.0001L0.613953 0.318115Z" fill="#29B6F6"/>
<path d="M0.613953 0.318115C0.252045 0.590118 0.00036615 1.00897 0 1.49219V34.4997C0 34.9899 0.251862 35.4055 0.616699 35.6794L19.1236 18.0001L0.613953 0.318115Z" fill="url(#paint0_linear_174_275)"/>
<path d="M24.8241 12.5543C17.2387 8.34097 7.81604 3.17932 2.19489 0.17209C1.64658 -0.120329 1.04901 -0.00909251 0.61377 0.318117L19.1234 18.0001L24.8241 12.5543Z" fill="#00E676"/>
<path d="M24.8241 12.5543C17.2387 8.34097 7.81604 3.17932 2.19489 0.17209C1.64658 -0.120329 1.04901 -0.00909251 0.61377 0.318117L19.1234 18.0001L24.8241 12.5543Z" fill="url(#paint1_linear_174_275)"/>
<path d="M0.616699 35.6795C0.867371 35.8678 1.16318 36.0001 1.5 36.0001C1.7373 36.0001 1.97095 35.9393 2.19434 35.8199C7.81476 32.8134 17.2347 27.6534 24.819 23.4408L19.1236 18.0001L0.616699 35.6795Z" fill="#F44336"/>
<path d="M0.616699 35.6795C0.867371 35.8678 1.16318 36.0001 1.5 36.0001C1.7373 36.0001 1.97095 35.9393 2.19434 35.8199C7.81476 32.8134 17.2347 27.6534 24.819 23.4408L19.1236 18.0001L0.616699 35.6795Z" fill="url(#paint2_linear_174_275)"/>
<path d="M32.2367 16.7028C30.2178 15.5598 27.6442 14.1206 24.8242 12.5542L19.1235 17.9999L24.8189 23.4406C27.6411 21.8733 30.2165 20.4331 32.2367 19.2896C32.7077 19.0229 32.9999 18.5276 32.9999 17.9958C32.9999 17.464 32.7077 16.9687 32.2367 16.7028Z" fill="#FFEA00"/>
<path d="M32.2367 16.7028C30.2178 15.5598 27.6442 14.1206 24.8242 12.5542L19.1235 17.9999L24.8189 23.4406C27.6411 21.8733 30.2165 20.4331 32.2367 19.2896C32.7077 19.0229 32.9999 18.5276 32.9999 17.9958C32.9999 17.464 32.7077 16.9687 32.2367 16.7028Z" fill="url(#paint3_linear_174_275)"/>
<path opacity="0.2" d="M2.08774 0.547116C9.85645 4.6723 24.8492 12.8604 32.3544 17.078C32.6284 17.2315 32.8325 17.4662 32.9644 17.7357C32.8855 17.3075 32.6287 16.9243 32.2366 16.703C24.7871 12.4854 9.90579 4.2973 2.19485 0.172116C1.27274 -0.319705 0.205322 0.311093 0.034668 1.24109C0.38678 0.531369 1.29086 0.125241 2.08774 0.547116Z" fill="white"/>
<path opacity="0.1" d="M2.08774 35.453C9.85645 31.3278 24.8492 23.1397 32.3544 18.9221C32.6284 18.7686 32.8325 18.5339 32.9644 18.2644C32.8855 18.6926 32.6287 19.0757 32.2366 19.2971C24.7871 23.5147 9.90579 31.7028 2.19485 35.828C1.27274 36.3198 0.205322 35.689 0.034668 34.759C0.38678 35.4687 1.29086 35.8748 2.08774 35.453Z" fill="black"/>
<path d="M32.2368 16.7013C30.2179 15.5582 7.81622 3.17665 2.19507 0.169174C1.64676 -0.123269 1.04919 -0.0120232 0.613953 0.315212C0.252045 0.587238 0.00036615 1.00612 0 1.48938V34.4995C0 34.9897 0.251862 35.4054 0.616699 35.6794C0.867371 35.8677 1.16318 36 1.5 36C1.7373 36 1.97095 35.9392 2.19434 35.8197C7.81476 32.813 30.2166 20.432 32.2368 19.2883C32.7078 19.0217 33 18.5263 33 17.9944C33 17.4626 32.7078 16.9672 32.2368 16.7013Z" fill="url(#paint4_linear_174_275)"/>
<defs>
<linearGradient id="paint0_linear_174_275" x1="9.56181" y1="3.13935" x2="9.56181" y2="27.0049" gradientUnits="userSpaceOnUse">
<stop stop-color="#00B8D4" stop-opacity="0"/>
<stop offset="1" stop-color="white" stop-opacity="0.3"/>
</linearGradient>
<linearGradient id="paint1_linear_174_275" x1="-0.949925" y1="3.67147" x2="23.623" y2="15.13" gradientUnits="userSpaceOnUse">
<stop stop-color="white" stop-opacity="0.2"/>
<stop offset="1" stop-color="white" stop-opacity="0"/>
</linearGradient>
<linearGradient id="paint2_linear_174_275" x1="9.72695" y1="26.5693" x2="15.7088" y2="32.5511" gradientUnits="userSpaceOnUse">
<stop stop-opacity="0.1"/>
<stop offset="1" stop-opacity="0"/>
</linearGradient>
<linearGradient id="paint3_linear_174_275" x1="22.7458" y1="14.3777" x2="29.9862" y2="21.6182" gradientUnits="userSpaceOnUse">
<stop stop-opacity="0.05"/>
<stop offset="1" stop-opacity="0"/>
</linearGradient>
<linearGradient id="paint4_linear_174_275" x1="-6.16872" y1="14.413" x2="27.4998" y2="30.1129" gradientUnits="userSpaceOnUse">
<stop stop-color="white" stop-opacity="0.2"/>
<stop offset="1" stop-color="white" stop-opacity="0"/>
</linearGradient>
</defs>
</svg>
