<svg xmlns="http://www.w3.org/2000/svg" xmlns:xlink="http://www.w3.org/1999/xlink" width="261.046" height="144.242" viewBox="0 0 261.046 144.242">
  <defs>
    <linearGradient id="linear-gradient" x1="0.5" y1="-0.081" x2="0.545" y2="0.95" gradientUnits="objectBoundingBox">
      <stop offset="0" stop-color="#00d65d"/>
      <stop offset="0.483" stop-color="#36ea85"/>
      <stop offset="1" stop-color="#006b2f"/>
    </linearGradient>
    <linearGradient id="linear-gradient-2" x1="0.5" x2="0.5" y2="1" gradientUnits="objectBoundingBox">
      <stop offset="0" stop-color="#09081a"/>
      <stop offset="1" stop-color="#5a5a66"/>
    </linearGradient>
    <clipPath id="clip-path">
      <path id="Path_3232" data-name="Path 3232" d="M3.548,40.469s3.169-3.81,4.532-5.1S46.5,26.291,46.5,26.291L81.078,3.423S99.848,1.642,130.952.175a164.355,164.355,0,0,1,55.2,6.766l22.5,25.04,1.294,28.947,1.888,1.2v9.883L70.482,95.35,8.975,91.165,6.649,85.686,0,83.45V53.317Z" transform="translate(0 0)" fill="url(#linear-gradient)"/>
    </clipPath>
    <linearGradient id="linear-gradient-3" x1="0.788" x2="0.224" xlink:href="#linear-gradient-2"/>
    <linearGradient id="linear-gradient-4" x1="0.5" x2="0.5" y2="1" gradientUnits="objectBoundingBox">
      <stop offset="0" stop-color="#09081a"/>
      <stop offset="1" stop-color="#09081a"/>
    </linearGradient>
    <filter id="Path_3261" x="0" y="57.08" width="261.046" height="87.162" filterUnits="userSpaceOnUse">
      <feOffset dy="3" input="SourceAlpha"/>
      <feGaussianBlur stdDeviation="3" result="blur"/>
      <feFlood flood-opacity="0.161"/>
      <feComposite operator="in" in2="blur"/>
      <feComposite in="SourceGraphic"/>
    </filter>
  </defs>
  <g id="range-rover-car" transform="translate(6369.738 -7261)">
    <g id="Group_513" data-name="Group 513">
      <g id="Group_498" data-name="Group 498" transform="translate(-6345.057 7261) rotate(3)">
        <g id="Group_482" data-name="Group 482" transform="translate(8.059 57.743)">
          <ellipse id="Ellipse_39" data-name="Ellipse 39" cx="18.242" cy="22.347" rx="18.242" ry="22.347" fill="#09081a"/>
          <g id="Group_213" data-name="Group 213" transform="translate(10.945 9.121)">
            <ellipse id="Ellipse_42" data-name="Ellipse 42" cx="9.577" cy="13.682" rx="9.577" ry="13.682" fill="#e0e0e7"/>
            <ellipse id="Ellipse_44" data-name="Ellipse 44" cx="5.017" cy="7.297" rx="5.017" ry="7.297" transform="translate(4.561 6.385)" fill="#fcfcfc"/>
          </g>
        </g>
        <path id="Path_3225" data-name="Path 3225" d="M3.548,38.9s3.169-3.8,4.532-5.094S46.5,24.743,46.5,24.743L81.078,1.911S99.86,1.743,130.964.278s52.8,3.337,52.8,3.337l24.885,26.809,2.591,28.2.591,1.9v9.869l-57.319,9.449L70.482,93.7,8.975,89.517l-2.326-5.47L0,81.814V51.728Z" transform="translate(0 1.654)" fill="#3caac9"/>
        <path id="Path_3226" data-name="Path 3226" d="M0,22.68,19.053,0,65.21,2.141l7.644,10.691s-4.9,4.683-23.11,7.146S0,22.68,0,22.68Z" transform="translate(114.886 6.203)" fill="url(#linear-gradient-2)"/>
        <g id="Mask_Group_13" data-name="Mask Group 13" transform="translate(0 0)" clip-path="url(#clip-path)">
          <path id="Path_3233" data-name="Path 3233" d="M89.263,0l59.913,17.633s-10.435,18.458-24.651,29.773-24.36,5.241-32.377,14.664S83.87,91.457,86.511,121.5,0,142.34,0,142.34V53.908Z" transform="translate(-17.456 -15.219)" fill="#fff" opacity="0.608"/>
        </g>
        <path id="Path_3227" data-name="Path 3227" d="M0,19.837l55.777,1.686L76.909,0H32.194Z" transform="translate(50.712 4.848)" fill="url(#linear-gradient-3)"/>
        <path id="Path_3228" data-name="Path 3228" d="M4.181,1.188H55.3l23.56.673v1.56L70.42,10H45l-6.474,2.825H7.919L4.181,8.9,0,6.571,1.125,0Z" transform="translate(1.964 40.306)" fill="#09081a"/>
        <path id="Path_3229" data-name="Path 3229" d="M0,0H22.869L19.5,9.6H6.911Z" transform="translate(43.04 60.987)" fill="#09081a"/>
        <path id="Path_3230" data-name="Path 3230" d="M0,22.47l1.77-3.31L40.7,21.875l7.491,7.175H75.505s7.457-18.6,10.9-20.835,21.685-3.652,24.469-2.109S120.25,26.96,120.25,26.96l58.418-5.084s4.3-16.27,5.653-18.613,15.095-4.7,17.63-2.169,5.407,13.423,5.407,13.423h4.076V26.96L75.505,47.572,4.235,43.116,0,36.464Z" transform="translate(0.16 48.064)" fill="url(#linear-gradient-4)"/>
        <g id="Group_480" data-name="Group 480" transform="translate(80.771 61.307)">
          <ellipse id="Ellipse_39-2" data-name="Ellipse 39" cx="18.242" cy="22.347" rx="18.242" ry="22.347" fill="#09081a"/>
          <g id="Group_213-2" data-name="Group 213" transform="translate(10.945 9.121)">
            <ellipse id="Ellipse_42-2" data-name="Ellipse 42" cx="9.577" cy="13.682" rx="9.577" ry="13.682" fill="#e0e0e7"/>
            <ellipse id="Ellipse_44-2" data-name="Ellipse 44" cx="5.017" cy="7.297" rx="5.017" ry="7.297" transform="translate(4.561 6.385)" fill="#fcfcfc"/>
          </g>
        </g>
        <ellipse id="Ellipse_153" data-name="Ellipse 153" cx="14.257" cy="17.465" rx="14.257" ry="17.465" transform="translate(179.803 54.012)" fill="#09081a"/>
        <g id="Group_481" data-name="Group 481" transform="translate(187.644 57.778)">
          <ellipse id="Ellipse_42-3" data-name="Ellipse 42" cx="7.485" cy="10.693" rx="7.485" ry="10.693" fill="#e0e0e7"/>
          <ellipse id="Ellipse_44-3" data-name="Ellipse 44" cx="3.921" cy="5.703" rx="3.921" ry="5.703" transform="translate(3.564 4.99)" fill="#fcfcfc"/>
        </g>
        <ellipse id="Ellipse_154" data-name="Ellipse 154" cx="4.277" cy="1.782" rx="4.277" ry="1.782" transform="matrix(0.996, -0.087, 0.087, 0.996, 142.595, 35.201)" fill="#156e3c"/>
        <ellipse id="Ellipse_155" data-name="Ellipse 155" cx="4.277" cy="1.782" rx="4.277" ry="1.782" transform="matrix(0.996, -0.087, 0.087, 0.996, 173.961, 32.913)" fill="#156e3c"/>
      </g>
      <g transform="matrix(1, 0, 0, 1, -6369.74, 7261)" filter="url(#Path_3261)">
        <path id="Path_3261-2" data-name="Path 3261" d="M136.795-15.442c72.225,0,97.9,3.649,97.9,8.388S177.066,18.988,104.841,18.988,23.264,12.842,23.264,8.1,64.57-15.442,136.795-15.442Z" transform="matrix(1, 0.02, -0.02, 1, 1.59, 93.64)" opacity="0.2"/>
      </g>
    </g>
  </g>
</svg>
