<svg xmlns="http://www.w3.org/2000/svg" xmlns:xlink="http://www.w3.org/1999/xlink" width="268.685" height="142.571" viewBox="0 0 268.685 142.571">
  <defs>
    <linearGradient id="linear-gradient" x1="0.611" y1="0.032" x2="0.623" y2="0.889" gradientUnits="objectBoundingBox">
      <stop offset="0" stop-color="#00d65d"/>
      <stop offset="0.502" stop-color="#12d668"/>
      <stop offset="1" stop-color="#106a38"/>
    </linearGradient>
    <filter id="Path_3260" x="0" y="39.898" width="268.685" height="102.674" filterUnits="userSpaceOnUse">
      <feOffset dy="3" input="SourceAlpha"/>
      <feGaussianBlur stdDeviation="3" result="blur"/>
      <feFlood flood-opacity="0.161"/>
      <feComposite operator="in" in2="blur"/>
      <feComposite in="SourceGraphic"/>
    </filter>
    <clipPath id="clip-path">
      <path id="Path_3257" data-name="Path 3257" d="M-5427.078,5505.748l54.194-13.449,28.912-18.516a191.448,191.448,0,0,1,35.681-7,213,213,0,0,1,46.42,1.473c16.854,2.758,19.338,3.666,27.241,8.453a106.411,106.411,0,0,1,15.374,11.856l9.57,3.738,6.459,5.205a80.121,80.121,0,0,1,1.317,13.907,64.935,64.935,0,0,1-2.224,15.173l-5.552,5.942-103.629,21.444-42.387,9.859-74.871-12.315-1.491-13.253,1.491-26.221Z" transform="translate(5432.063 -5466.113)" opacity="0.563" fill="url(#linear-gradient)"/>
    </clipPath>
    <linearGradient id="linear-gradient-2" x1="0.5" x2="0.5" y2="1" gradientUnits="objectBoundingBox">
      <stop offset="0" stop-color="#fff"/>
      <stop offset="1" stop-color="#fff" stop-opacity="0.11"/>
    </linearGradient>
    <linearGradient id="linear-gradient-3" x1="0.5" y1="1.179" x2="0.769" y2="0.084" gradientUnits="objectBoundingBox">
      <stop offset="0" stop-color="#09081a"/>
      <stop offset="1" stop-color="#5a5a66"/>
    </linearGradient>
    <linearGradient id="linear-gradient-4" x1="0.423" y1="1.203" x2="0.468" y2="-0.407" xlink:href="#linear-gradient-3"/>
  </defs>
  <g id="royce-car" transform="translate(6678.951 -7252)">
    <g id="Group_512" data-name="Group 512">
      <g id="Group_502" data-name="Group 502" transform="translate(0 80)">
        <g transform="matrix(1, 0, 0, 1, -6678.95, 7172)" filter="url(#Path_3260)">
          <path id="Path_3260-2" data-name="Path 3260" d="M140.753-15.442c74.743,0,101.313,5.28,101.313,12.136s-59.637,37.68-134.38,37.68S23.264,25.48,23.264,18.624,66.01-15.442,140.753-15.442Z" transform="matrix(1, 0.02, -0.02, 1, 1.86, 76.45)" opacity="0.2"/>
        </g>
        <g id="Group_499" data-name="Group 499" transform="matrix(0.999, 0.035, -0.035, 0.999, -3548.861, 2518.777)">
          <g id="Group_490" data-name="Group 490" transform="translate(-2951.062 4759.113)">
            <g id="Group_487" data-name="Group 487" transform="translate(0 0)">
              <ellipse id="Ellipse_162" data-name="Ellipse 162" cx="18.5" cy="24" rx="18.5" ry="24" transform="translate(77.062 57)" fill="#09081a"/>
              <ellipse id="Ellipse_163" data-name="Ellipse 163" cx="18" cy="24.5" rx="18" ry="24.5" transform="translate(6.062 49)" fill="#09081a"/>
              <path id="Path_3244" data-name="Path 3244" d="M-5427.078,5505.748l54.194-13.449,28.912-18.516a191.448,191.448,0,0,1,35.681-7,213,213,0,0,1,46.42,1.473c16.854,2.758,19.338,3.666,27.241,8.453a106.411,106.411,0,0,1,15.374,11.856l16.029,8.943a80.121,80.121,0,0,1,1.317,13.907,64.935,64.935,0,0,1-2.224,15.173l-5.552,5.942-103.629,21.444-42.387,9.859-74.871-12.315-1.491-13.253,1.491-26.221Z" transform="translate(5432.063 -5466.113)" fill="#3caac9"/>
              <g id="Mask_Group_14" data-name="Mask Group 14" transform="translate(0 0.443)" clip-path="url(#clip-path)">
                <path id="Path_3258" data-name="Path 3258" d="M-5376.846,5807.8l13.181-11.137h76.41l26.492,7.743s-36.139-1.181-43.718,3.394-17.2,23.68-21.189,26.426c-11.752,8.1-36.994,6.947-50.1,25.376s-4.862,52.855-4.862,52.855l-91.493-17.812,11.392-55.911Z" transform="translate(5451.713 -5800.114)" opacity="0.697" fill="url(#linear-gradient-2)"/>
              </g>
              <path id="Path_3250" data-name="Path 3250" d="M-4983.721,5580.04l4.8-19.723s3.632-10.093,9.551-9.34,6.4,5.918,7.454,9.866.261,13.752.261,13.752Z" transform="translate(5184.595 -5510.24)" fill="#09081a"/>
              <path id="Path_3245" data-name="Path 3245" d="M-5294.691,5497.519l60.938,2.9,16.676-19.723s-16.571-3.175-29.529-3.417a83.13,83.13,0,0,0-22.3,2.449Z" transform="translate(5357.775 -5471.436)" fill="url(#linear-gradient-3)"/>
              <path id="Path_3247" data-name="Path 3247" d="M-5134.6,5505s8.376-12.61,14.054-17.259,32.1-4.737,39.944-1.8,14.5,13.7,14.5,13.7Z" transform="translate(5268.622 -5475.159)" stroke="#d9d9d9" stroke-width="1" fill="url(#linear-gradient-4)"/>
              <path id="Path_3248" data-name="Path 3248" d="M-5434.217,5563.4l6.3,1.687-.907,7.287-5.924-.776Z" transform="translate(5435.775 -5517.413)" fill="#09081a"/>
              <ellipse id="Ellipse_159" data-name="Ellipse 159" cx="18" cy="24" rx="18" ry="24" transform="translate(82.062 58)" fill="#09081a"/>
              <path id="Path_3251" data-name="Path 3251" d="M-5328.909,5582.77l2.536-7.9h21.068l-1.333,7.9Z" transform="translate(5376.831 -5523.593)" fill="#09081a"/>
              <path id="Path_3249" data-name="Path 3249" d="M-5419.335,5592.375v-9.791l2.544-20.362a112.432,112.432,0,0,1,16.821,0,84.738,84.738,0,0,1,15.165,2.935s-2.876,12.635-3.242,20.661,1.779,11.442,1.779,11.442Z" transform="translate(5427.19 -5515.825)" fill="#09081a"/>
              <path id="Path_3252" data-name="Path 3252" d="M-5254.554,5619.994s-4-34.566,18.7-41.266,18.491,32.795,18.491,32.795" transform="translate(5335.574 -5523.311)" fill="#09081a"/>
              <ellipse id="Ellipse_160" data-name="Ellipse 160" cx="12.5" cy="18.5" rx="12.5" ry="18.5" transform="translate(89.062 61)" fill="#e0e0e7"/>
              <ellipse id="Ellipse_164" data-name="Ellipse 164" cx="7" cy="11" rx="7" ry="11" transform="translate(94.062 70)" fill="#fff"/>
              <path id="Path_3253" data-name="Path 3253" d="M-4988.527,5609.534s.7,6.679,4.553,9.228,10.851.968,10.851.968a11.718,11.718,0,0,0,5.6-5.221c2.162-3.957,3.05-10.609,3.05-10.609Z" transform="translate(5187.271 -5538.913)" fill="#09081a"/>
              <ellipse id="Ellipse_161" data-name="Ellipse 161" cx="7" cy="12" rx="7" ry="12" transform="translate(206.062 48.27)" fill="#f4f6fc"/>
              <ellipse id="Ellipse_165" data-name="Ellipse 165" cx="4" cy="7" rx="4" ry="7" transform="translate(209.062 53.227)" fill="#fff"/>
              <rect id="Rectangle_1537" data-name="Rectangle 1537" width="19.496" height="3.102" rx="1.551" transform="translate(164.374 36.124) rotate(-7)" fill="#09081a" opacity="0.381"/>
              <path id="Path_3254" data-name="Path 3254" d="M-5033.832,5886.964l.433,2.946" transform="translate(5208.071 -5851.925)" fill="none" stroke="#09081a" stroke-width="1"/>
            </g>
          </g>
        </g>
      </g>
    </g>
  </g>
</svg>
