<svg xmlns="http://www.w3.org/2000/svg" xmlns:xlink="http://www.w3.org/1999/xlink" width="320.108" height="141.527" viewBox="0 0 320.108 141.527">
  <defs>
    <filter id="Ellipse_169" x="0" y="62.931" width="320.108" height="78.596" filterUnits="userSpaceOnUse">
      <feOffset dy="3" input="SourceAlpha"/>
      <feGaussianBlur stdDeviation="3" result="blur"/>
      <feFlood flood-opacity="0.161"/>
      <feComposite operator="in" in2="blur"/>
      <feComposite in="SourceGraphic"/>
    </filter>
  </defs>
  <g id="Sedan-car" transform="translate(7043.044 -7261)">
    <g id="Group_511" data-name="Group 511">
      <g transform="matrix(1, 0, 0, 1, -7043.04, 7261)" filter="url(#Ellipse_169)">
        <ellipse id="Ellipse_169-2" data-name="Ellipse 169" cx="135.334" cy="12.414" rx="135.334" ry="12.414" transform="matrix(1, 0.02, -0.02, 1, 24.96, 84.45)" opacity="0.2"/>
      </g>
      <g id="Group_500" data-name="Group 500" transform="translate(-7028.439 7261)">
        <ellipse id="Ellipse_40" data-name="Ellipse 40" cx="20" cy="24.5" rx="20" ry="24.5" transform="translate(79.102 56.007)" fill="#09081a"/>
        <ellipse id="Ellipse_43" data-name="Ellipse 43" cx="20" cy="24.5" rx="20" ry="24.5" transform="translate(18.102 52.007)" fill="#09081a"/>
        <path id="Path_2945" data-name="Path 2945" d="M-4838.719,2165.561h177.875s10,.378,14.335-12.663,6.439-23.265,0-36.393c-3.212-6.55-10.323-4.2-24.541-12.113s-31.183-15.77-42.292-22.569-94.446-5.158-103.7-2.678-43.786,27.168-43.786,27.168-50.564,17.881-56.029,24.474c-12.563,15.156,0,31.65,0,31.65Z" transform="translate(4922.971 -2076.993)" fill="#3caac9"/>
        <ellipse id="Ellipse_38" data-name="Ellipse 38" cx="20" cy="24.5" rx="20" ry="24.5" transform="translate(207.102 54.007)" fill="#09081a"/>
        <ellipse id="Ellipse_39" data-name="Ellipse 39" cx="20" cy="24.5" rx="20" ry="24.5" transform="translate(85.102 57.007)" fill="#09081a"/>
        <g id="Group_212" data-name="Group 212" transform="translate(217.102 63.007)">
          <ellipse id="Ellipse_42" data-name="Ellipse 42" cx="10.5" cy="15" rx="10.5" ry="15" fill="#e0e0e7"/>
          <ellipse id="Ellipse_44" data-name="Ellipse 44" cx="5.5" cy="8" rx="5.5" ry="8" transform="translate(5 7)" fill="#fcfcfc"/>
        </g>
        <g id="Group_213" data-name="Group 213" transform="translate(98.102 67.007)">
          <ellipse id="Ellipse_42-2" data-name="Ellipse 42" cx="10.5" cy="15" rx="10.5" ry="15" fill="#e0e0e7"/>
          <ellipse id="Ellipse_44-2" data-name="Ellipse 44" cx="5.5" cy="8" rx="5.5" ry="8" transform="translate(5 7)" fill="#fcfcfc"/>
        </g>
        <path id="Path_2946" data-name="Path 2946" d="M-4272.9,2079.605c-8.858-5.114-49.543-2.061-76.107-2.415s-33.51-.009-33.51-.009l-34.854,22.973,69.893,3.478,93.975-.034s8.676-.046,3.672-6.4S-4264.042,2084.719-4272.9,2079.605Z" transform="translate(4479.75 -2070.993)" fill="#09081a"/>
        <ellipse id="Ellipse_45" data-name="Ellipse 45" cx="10.5" cy="4" rx="10.5" ry="4" transform="translate(185.102 39.007)" fill="#156e3c"/>
        <path id="Path_2948" data-name="Path 2948" d="M-4048.9,1980.649s-51.312,17.1-56.506,26.088-3.584,31.222-3.584,31.222l-70.832-2.244s-6.764-7.6-6.764-16.27,6.042-17.05,6.042-17.05l56.414-23.257s5.522.562,17.555,1.512S-4048.9,1980.649-4048.9,1980.649Z" transform="translate(4186.584 -1949.993)" fill="#fff" style="mix-blend-mode: soft-light;isolation: isolate"/>
        <path id="Path_2947" data-name="Path 2947" d="M70.985,10.525c3.557-1.491,0-10.525,0-10.525H59.866L53.773,7.577H26.417L22.568,0H5.027S-1.054,9.8.16,10.525,67.428,12.016,70.985,10.525Z" transform="matrix(-1, -0.017, 0.017, -1, 78.624, 67.355)" fill="#1e1e29"/>
        <path id="Path_2949" data-name="Path 2949" d="M-4125.117,1982.6l13.917-26.417-49.264.047-35.032,23.04Z" transform="translate(4257.799 -1949.993)" fill="#fff" opacity="0.419"/>
      </g>
    </g>
  </g>
</svg>
