<svg width="62" height="62" viewBox="0 0 62 62" fill="none" xmlns="http://www.w3.org/2000/svg">
<path d="M7 55H3C2.46957 55 1.96086 54.7893 1.58579 54.4142C1.21071 54.0391 1 53.5304 1 53V45C1 43.9391 1.42143 42.9217 2.17157 42.1716C2.92172 41.4214 3.93913 41 5 41H57C58.0609 41 59.0783 41.4214 59.8284 42.1716C60.5786 42.9217 61 43.9391 61 45V53C61 53.5304 60.7893 54.0391 60.4142 54.4142C60.0391 54.7893 59.5304 55 59 55H53" stroke="#3CAAC9" stroke-width="2" stroke-linejoin="round"/>
<path d="M61 47H58C57.2044 47 56.4413 46.6839 55.8787 46.1213C55.3161 45.5587 55 44.7956 55 44V41" stroke="#3CAAC9" stroke-width="2" stroke-linejoin="round"/>
<path d="M7 41L11.734 33.9C12.7384 32.3929 14.0993 31.157 15.696 30.3022C17.2928 29.4474 19.0759 29.0001 20.887 29H33.7C36.4652 29 39.1291 30.0414 41.161 31.917L51 41" stroke="#3CAAC9" stroke-width="2" stroke-linejoin="round"/>
<path d="M47 61C50.3137 61 53 58.3137 53 55C53 51.6863 50.3137 49 47 49C43.6863 49 41 51.6863 41 55C41 58.3137 43.6863 61 47 61Z" stroke="#3CAAC9" stroke-width="2" stroke-linejoin="round"/>
<path d="M13 61C16.3137 61 19 58.3137 19 55C19 51.6863 16.3137 49 13 49C9.68629 49 7 51.6863 7 55C7 58.3137 9.68629 61 13 61Z" stroke="#3CAAC9" stroke-width="2" stroke-linejoin="round"/>
<path d="M5 41V45C5 46.0609 4.57857 47.0783 3.82843 47.8284C3.07828 48.5786 2.06087 49 1 49" stroke="#3CAAC9" stroke-width="2" stroke-linejoin="round"/>
<path d="M35.023 29V25H19V29" stroke="#3CAAC9" stroke-width="2" stroke-linejoin="round"/>
<path d="M47 57C48.1046 57 49 56.1046 49 55C49 53.8954 48.1046 53 47 53C45.8954 53 45 53.8954 45 55C45 56.1046 45.8954 57 47 57Z" stroke="#3CAAC9" stroke-width="2" stroke-linejoin="round"/>
<path d="M13 57C14.1046 57 15 56.1046 15 55C15 53.8954 14.1046 53 13 53C11.8954 53 11 53.8954 11 55C11 56.1046 11.8954 57 13 57Z" stroke="#3CAAC9" stroke-width="2" stroke-linejoin="round"/>
<path d="M41 55H19" stroke="#3CAAC9" stroke-width="2" stroke-linejoin="round"/>
<path d="M24.0229 29V41" stroke="#3CAAC9" stroke-width="2" stroke-linejoin="round"/>
<path d="M28.0229 29V41" stroke="#3CAAC9" stroke-width="2" stroke-linejoin="round"/>
<path d="M22 46V48" stroke="#3CAAC9" stroke-width="2" stroke-linejoin="round"/>
<path d="M24 44V46" stroke="#3CAAC9" stroke-width="2" stroke-linejoin="round"/>
<path d="M26 46V48" stroke="#3CAAC9" stroke-width="2" stroke-linejoin="round"/>
<path d="M28 44V46" stroke="#3CAAC9" stroke-width="2" stroke-linejoin="round"/>
<path d="M30 46V48" stroke="#3CAAC9" stroke-width="2" stroke-linejoin="round"/>
<path d="M32 44V46" stroke="#3CAAC9" stroke-width="2" stroke-linejoin="round"/>
<path d="M34 46V48" stroke="#3CAAC9" stroke-width="2" stroke-linejoin="round"/>
<path d="M36 44V46" stroke="#3CAAC9" stroke-width="2" stroke-linejoin="round"/>
<path d="M38 46V48" stroke="#3CAAC9" stroke-width="2" stroke-linejoin="round"/>
<path d="M61 1H29V21H61V1Z" stroke="#3CAAC9" stroke-width="2" stroke-linejoin="round"/>
<path d="M32 8H38" stroke="#3CAAC9" stroke-width="2" stroke-linejoin="round"/>
<path d="M35 8V15" stroke="#3CAAC9" stroke-width="2" stroke-linejoin="round"/>
<path d="M41 15V10C41 9.46957 41.2107 8.96086 41.5858 8.58579C41.9609 8.21071 42.4696 8 43 8V8C43.5304 8 44.0391 8.21071 44.4142 8.58579C44.7893 8.96086 45 9.46957 45 10V15" stroke="#3CAAC9" stroke-width="2" stroke-linejoin="round"/>
<path d="M41 12H45" stroke="#3CAAC9" stroke-width="2" stroke-linejoin="round"/>
<path d="M49 7C49 7.63403 49.1248 8.26186 49.3675 8.84763C49.6101 9.43341 49.9657 9.96566 50.414 10.414L51.586 11.586C52.0343 12.0343 52.3899 12.5666 52.6325 13.1524C52.8752 13.7381 53 14.366 53 15" stroke="#3CAAC9" stroke-width="2" stroke-linejoin="round"/>
<path d="M53 7C53 7.63403 52.8752 8.26186 52.6325 8.84763C52.3899 9.43341 52.0343 9.96566 51.586 10.414L50.414 11.586C49.9657 12.0343 49.6101 12.5666 49.3675 13.1524C49.1248 13.7381 49 14.366 49 15V15" stroke="#3CAAC9" stroke-width="2" stroke-linejoin="round"/>
<path d="M57 7V15" stroke="#3CAAC9" stroke-width="2" stroke-linejoin="round"/>
<path d="M41 21V25H49V21" stroke="#3CAAC9" stroke-width="2" stroke-linejoin="round"/>
<path d="M43 25V34" stroke="#3CAAC9" stroke-width="2" stroke-linejoin="round"/>
<path d="M47 25V37" stroke="#3CAAC9" stroke-width="2" stroke-linejoin="round"/>
</svg>
